<?xml version="1.0" standalone="no"?>
<!DOCTYPE svg PUBLIC "-//W3C//DTD SVG 20010904//EN"
 "http://www.w3.org/TR/2001/REC-SVG-20010904/DTD/svg10.dtd">
<svg version="1.0" xmlns="http://www.w3.org/2000/svg"
 width="492.000000pt" height="398.000000pt" viewBox="0 0 492.000000 398.000000"
 preserveAspectRatio="xMidYMid meet">

<g transform="translate(0.000000,398.000000) scale(0.100000,-0.100000)"
fill="#000000" stroke="none">
<path d="M0 1990 l0 -1990 2460 0 2460 0 0 1990 0 1990 -2460 0 -2460 0 0
-1990z m1720 174 l0 -137 20 26 c44 56 139 59 184 6 25 -30 26 -35 26 -174 l0
-144 28 -4 c15 -2 -25 -4 -88 -4 -63 -1 -107 1 -97 4 15 4 17 20 17 158 0 93
-4 156 -10 160 -21 13 -49 -7 -64 -46 -11 -28 -16 -72 -16 -150 0 -104 1 -110
23 -119 15 -6 -15 -8 -93 -8 -63 0 -105 3 -92 5 l22 4 0 270 c0 262 0 269 -20
269 -11 0 -20 5 -20 10 0 6 37 10 90 10 l90 0 0 -136z m2222 99 c22 -20 24
-76 2 -97 -8 -9 -26 -19 -39 -22 -74 -18 -123 67 -69 120 20 21 83 20 106 -1z
m-1629 -188 c53 -25 78 -78 78 -161 0 -111 -50 -175 -148 -190 -103 -15 -200
35 -223 117 -22 76 -1 169 48 212 54 48 170 59 245 22z m537 -3 c37 -28 49
-74 49 -194 1 -129 17 -149 50 -63 11 30 11 29 6 -9 -7 -59 -34 -81 -100 -81
-42 0 -59 5 -76 21 l-21 21 -23 -23 c-28 -28 -69 -31 -120 -10 -37 16 -55 42
-55 80 0 59 32 82 134 92 l67 7 -7 76 c-7 83 -22 108 -55 90 -23 -12 -25 -35
-4 -43 21 -8 19 -52 -5 -76 -41 -41 -110 -10 -110 48 0 35 36 71 82 83 52 13
159 2 188 -19z m455 14 c19 -8 40 -26 47 -40 l11 -26 18 29 c24 40 79 57 130
42 64 -19 73 -44 78 -207 3 -137 4 -143 25 -147 11 -2 -28 -5 -89 -5 -60 0
-104 2 -97 5 9 3 12 45 12 158 0 168 -7 188 -47 141 -22 -25 -23 -35 -23 -161
0 -119 2 -134 18 -138 9 -3 -30 -5 -88 -6 -76 0 -100 2 -87 10 15 9 17 26 17
133 0 140 -6 186 -26 186 -8 0 -23 -15 -34 -32 -17 -28 -20 -51 -20 -160 0
-112 2 -127 18 -131 9 -3 -32 -5 -93 -4 -60 0 -100 2 -87 4 22 4 22 6 22 173
0 167 0 169 -22 173 -13 2 19 5 70 6 l92 1 0 -27 0 -27 28 26 c44 41 72 46
127 24z m-2182 -3 c-27 -5 -28 -21 -9 -89 8 -27 22 -76 31 -109 l17 -60 24 75
c28 86 27 155 -2 177 -15 11 -3 13 82 13 64 0 94 -4 84 -10 -12 -7 -11 -22 10
-102 40 -159 38 -158 71 -38 35 127 35 137 7 143 -13 2 2 5 32 5 38 1 49 -2
35 -7 -16 -7 -29 -42 -64 -180 l-44 -171 -53 0 -53 0 -15 55 c-9 30 -24 81
-33 113 l-17 57 -35 -112 -35 -113 -51 0 -52 0 -51 159 c-29 87 -52 163 -52
170 0 6 -10 16 -22 21 -16 6 16 8 97 8 66 0 110 -3 98 -5z m2837 -167 c0 -173
0 -175 23 -179 12 -2 -32 -4 -98 -5 -66 0 -109 3 -95 7 l25 7 0 164 0 164 -25
7 c-14 4 17 7 73 8 l97 1 0 -174z"/>
<path d="M2171 2061 c-16 -30 -14 -283 2 -305 19 -26 59 -17 68 14 9 31 9 235
0 275 -8 38 -53 48 -70 16z"/>
<path d="M2711 1854 c-10 -36 -5 -90 9 -99 15 -9 29 22 36 78 6 53 5 57 -14
57 -16 0 -24 -9 -31 -36z"/>
</g>
</svg>
